<svg xmlns="http://www.w3.org/2000/svg" width="32" height="32" viewBox="0 0 24 24">
  <path fill="#6C707E" d="M6.391 1.537a.79.79 0 0 0-.679.392L.106 11.607a.79.79 0 0 0 0 .786l5.606 9.678a.79.79 0 0 0 .68.392h11.217c.28 0 .538-.15.679-.392l5.606-9.678a.79.79 0 0 0 0-.786l-5.606-9.678a.79.79 0 0 0-.68-.392zm.03.837h10.542l-5.209 9.212H5.968l4.72-8.175a.13.13 0 0 0-.114-.196l-3.068-.002a.26.26 0 0 0-.226.13l-4.764 8.243h-1.43zm11.333.303l5.4 9.323l-5.371 9.274l-5.299-9.279zm.171 2.825a.13.13 0 0 0-.113.066l-1.519 2.69a.26.26 0 0 0 .002.259l1.943 3.36a.26.26 0 0 1 0 .262l-1.927 3.338a.26.26 0 0 0 0 .26l1.526 2.675a.13.13 0 0 0 .227 0l3.55-6.143a.52.52 0 0 0 0-.524L18.04 5.567a.13.13 0 0 0-.114-.065zM1.09 12.422h1.436l4.764 8.232a.26.26 0 0 0 .226.13l3.072.002a.13.13 0 0 0 .113-.196L5.98 12.423h5.784l5.256 9.203H6.421z"/>
</svg>
